<svg width="1300" height="1128" viewBox="0 0 1300 1128" fill="none" xmlns="http://www.w3.org/2000/svg">
<g filter="url(#filter0_f_159_190)">
<path d="M365.331 341.772C403.731 280.172 481.331 325.105 515.331 355.272C510.331 346.272 521.831 338.472 607.831 379.272C715.331 430.272 663.831 739.772 597.331 790.772C530.831 841.772 349.831 814.772 318.831 739.772C287.831 664.772 351.331 630.272 465.831 635.772C580.331 641.272 547.831 510.772 549.831 444.272C551.831 377.772 467.831 427.272 414.831 454.772C361.831 482.272 317.331 418.772 365.331 341.772Z" fill="url(#paint0_linear_159_190)"/>
<path d="M365.331 341.772C403.731 280.172 481.331 325.105 515.331 355.272C510.331 346.272 521.831 338.472 607.831 379.272C715.331 430.272 663.831 739.772 597.331 790.772C530.831 841.772 349.831 814.772 318.831 739.772C287.831 664.772 351.331 630.272 465.831 635.772C580.331 641.272 547.831 510.772 549.831 444.272C551.831 377.772 467.831 427.272 414.831 454.772C361.831 482.272 317.331 418.772 365.331 341.772Z" stroke="black"/>
</g>
<g filter="url(#filter1_f_159_190)">
<path d="M614.999 603.272C527.799 484.472 625.332 425.105 684.999 410.272C730.499 410.272 901.257 315.241 963.499 410.272C1019.5 495.772 975.499 656.272 915.499 715.772C855.499 775.272 723.999 751.772 614.999 603.272Z" fill="url(#paint1_linear_159_190)"/>
<path d="M614.999 603.272C527.799 484.472 625.332 425.105 684.999 410.272C730.499 410.272 901.257 315.241 963.499 410.272C1019.5 495.772 975.499 656.272 915.499 715.772C855.499 775.272 723.999 751.772 614.999 603.272Z" stroke="black"/>
</g>
<defs>
<filter id="filter0_f_159_190" x="0.5" y="0.5" width="979.81" height="1126.94" filterUnits="userSpaceOnUse" color-interpolation-filters="sRGB">
<feFlood flood-opacity="0" result="BackgroundImageFix"/>
<feBlend mode="normal" in="SourceGraphic" in2="BackgroundImageFix" result="shape"/>
<feGaussianBlur stdDeviation="155" result="effect1_foregroundBlur_159_190"/>
</filter>
<filter id="filter1_f_159_190" x="269.805" y="57.5369" width="1029.99" height="999.014" filterUnits="userSpaceOnUse" color-interpolation-filters="sRGB">
<feFlood flood-opacity="0" result="BackgroundImageFix"/>
<feBlend mode="normal" in="SourceGraphic" in2="BackgroundImageFix" result="shape"/>
<feGaussianBlur stdDeviation="155" result="effect1_foregroundBlur_159_190"/>
</filter>
<linearGradient id="paint0_linear_159_190" x1="291.647" y1="292.184" x2="817.432" y2="479.35" gradientUnits="userSpaceOnUse">
<stop stop-color="#7B2CBF"/>
<stop offset="0.130698" stop-color="#8030B8"/>
<stop offset="1" stop-color="#FF9E00"/>
</linearGradient>
<linearGradient id="paint1_linear_159_190" x1="558.245" y1="353.978" x2="1079.71" y2="637.173" gradientUnits="userSpaceOnUse">
<stop stop-color="#7B2CBF"/>
<stop offset="0.130698" stop-color="#8030B8"/>
<stop offset="1" stop-color="#FF9E00"/>
</linearGradient>
</defs>
</svg>
