<svg width="18" height="17" viewBox="0 0 18 17" fill="none" xmlns="http://www.w3.org/2000/svg">
<path fill-rule="evenodd" clip-rule="evenodd" d="M1.28187 13.7546C0.696083 14.3404 0.696083 15.2901 1.28187 15.8759C1.86766 16.4617 2.8174 16.4617 3.40319 15.8759L8.99999 10.2791L14.5969 15.876C15.1826 16.4618 16.1324 16.4618 16.7182 15.876C17.304 15.2902 17.304 14.3404 16.7182 13.7547L11.1213 8.15778L16.7182 2.5609C17.304 1.97512 17.304 1.02537 16.7182 0.439584C16.1324 -0.146202 15.1826 -0.146202 14.5969 0.439584L8.99999 6.03646L3.40319 0.439663C2.8174 -0.146123 1.86766 -0.146123 1.28187 0.439663C0.696083 1.02545 0.696083 1.9752 1.28187 2.56098L6.87867 8.15778L1.28187 13.7546Z" fill="white"/>
</svg>
