<svg width="26" height="26" viewBox="0 0 26 26" fill="none" xmlns="http://www.w3.org/2000/svg">
<g opacity="0.6">
<path d="M13.3465 2.36792C11.2613 2.36792 9.22297 2.98625 7.48921 4.14471C5.75545 5.30317 4.40414 6.94974 3.60618 8.87619C2.80822 10.8026 2.59943 12.9225 3.00623 14.9676C3.41303 17.0127 4.41714 18.8912 5.89158 20.3657C7.36603 21.8401 9.24458 22.8442 11.2897 23.251C13.3348 23.6578 15.4546 23.449 17.3811 22.6511C19.3075 21.8531 20.9541 20.5018 22.1126 18.7681C23.271 17.0343 23.8893 14.9959 23.8893 12.9108C23.8862 10.1156 22.7745 7.43577 20.798 5.45927C18.8215 3.48278 16.1417 2.37102 13.3465 2.36792ZM21.4616 11.7393H21.157C19.7952 11.7401 18.4385 11.906 17.1165 12.2333C16.8299 11.438 16.4833 10.6655 16.0798 9.92265C17.256 9.1756 18.3348 8.28534 19.2915 7.2723C20.4607 8.50016 21.2191 10.0613 21.4616 11.7393ZM17.4465 5.81387C16.6545 6.62652 15.7699 7.34339 14.8108 7.94977C13.9515 6.79515 12.9483 5.75491 11.8256 4.85427C13.7537 4.48715 15.7494 4.82787 17.4465 5.81387ZM9.2016 5.84023C10.5375 6.7108 11.7214 7.79479 12.7061 9.04896C10.9311 9.79571 9.02456 10.1794 7.09889 10.1774C6.61079 10.1774 6.1227 10.1521 5.64046 10.1042C6.29846 8.314 7.55657 6.80716 9.20062 5.84023H9.2016ZM5.14651 12.9108C5.14651 12.7419 5.15334 12.575 5.1631 12.409C5.80574 12.4827 6.45204 12.5198 7.09889 12.5203C9.48341 12.5223 11.8409 12.0158 14.0142 11.0345C14.3514 11.6515 14.6425 12.2927 14.885 12.9527C14.1618 13.2429 13.4598 13.5835 12.7842 13.9719C10.7239 15.1614 8.9382 16.7728 7.54403 18.7005C6.78337 17.9405 6.18007 17.0379 5.76867 16.0444C5.35727 15.0509 5.14585 13.9861 5.14651 12.9108ZM9.41929 20.1072C10.6229 18.4326 12.1689 17.033 13.9547 16.0014C14.4591 15.7116 14.9807 15.4528 15.5166 15.2263C15.6897 16.1271 15.777 17.0423 15.7772 17.9596C15.778 18.9214 15.6832 19.8808 15.4941 20.8238C13.453 21.3791 11.2761 21.1223 9.42027 20.1072H9.41929ZM18.0381 19.6299C18.0927 19.0754 18.122 18.517 18.122 17.9567C18.1214 16.7908 17.9997 15.6281 17.7589 14.4873C18.8714 14.219 20.0116 14.083 21.156 14.0822H21.4596C21.2984 15.1916 20.9117 16.2561 20.3232 17.2103C19.7347 18.1644 18.957 18.9879 18.0381 19.6299Z" fill="white"/>
</g>
</svg>
