<svg width="26" height="26" viewBox="0 0 26 26" fill="none" xmlns="http://www.w3.org/2000/svg">
<g opacity="0.6">
<path fill-rule="evenodd" clip-rule="evenodd" d="M9.09382 1.71686C8.19103 1.71619 7.31145 2.00293 6.5825 2.53554C5.85354 3.06814 5.31305 3.81897 5.03932 4.67927C4.76558 5.53957 4.77281 6.46467 5.05995 7.32059C5.34709 8.17651 5.89924 8.9188 6.63643 9.43995C6.08139 9.83256 5.62874 10.3527 5.31654 10.9566C5.00433 11.5606 4.8417 12.2306 4.84232 12.9105C4.84232 14.3433 5.55143 15.6116 6.63851 16.3811C6.04298 16.8026 5.56596 17.3703 5.25335 18.0296C4.94074 18.6889 4.80306 19.4175 4.85356 20.1454C4.90405 20.8733 5.14103 21.5759 5.54167 22.1857C5.94232 22.7955 6.49316 23.2919 7.1412 23.6272C7.78923 23.9625 8.51265 24.1253 9.24185 24.1001C9.97104 24.0749 10.6815 23.8624 11.3048 23.4832C11.9281 23.1039 12.4433 22.5706 12.8009 21.9346C13.1584 21.2986 13.3463 20.5812 13.3464 19.8516V16.203C13.7887 16.5613 14.2984 16.8272 14.8454 16.9848C15.3924 17.1424 15.9655 17.1886 16.5306 17.1206C17.0958 17.0526 17.6415 16.8718 18.1355 16.5889C18.6295 16.306 19.0616 15.9268 19.4063 15.4737C19.7509 15.0207 20.0011 14.5031 20.142 13.9515C20.2828 13.4 20.3115 12.8258 20.2262 12.2629C20.141 11.7001 19.9436 11.1601 19.6457 10.675C19.3479 10.1899 18.9557 9.76958 18.4923 9.43891C19.2295 8.91776 19.7817 8.17547 20.0688 7.31955C20.3559 6.46363 20.3632 5.53853 20.0894 4.67823C19.8157 3.81793 19.2752 3.0671 18.5463 2.53449C17.8173 2.00189 16.9377 1.71515 16.0349 1.71582H9.09591L9.09382 1.71686ZM11.7834 15.6001H9.09382C8.74062 15.6001 8.39088 15.5305 8.06456 15.3954C7.73824 15.2602 7.44174 15.0621 7.19199 14.8123C6.94224 14.5626 6.74413 14.2661 6.60896 13.9398C6.4738 13.6134 6.40423 13.2637 6.40423 12.9105C6.40423 12.5573 6.4738 12.2076 6.60896 11.8812C6.74413 11.5549 6.94224 11.2584 7.19199 11.0087C7.44174 10.7589 7.73824 10.5608 8.06456 10.4256C8.39088 10.2905 8.74062 10.2209 9.09382 10.2209H11.7834V15.6001ZM9.09382 8.659H11.7834V3.27877H9.09382C8.38036 3.27877 7.69612 3.56219 7.19162 4.06668C6.68713 4.57118 6.40371 5.25542 6.40371 5.96888C6.40371 6.68235 6.68713 7.36659 7.19162 7.87108C7.69612 8.37558 8.38036 8.659 9.09382 8.659ZM18.7256 5.96836C18.7258 6.68133 18.443 7.36523 17.9393 7.86977C17.4355 8.3743 16.7521 8.65817 16.0391 8.659H13.3453V3.27877H16.036C16.3892 3.27877 16.7389 3.34833 17.0652 3.4835C17.3915 3.61866 17.688 3.81678 17.9378 4.06653C18.1875 4.31628 18.3857 4.61278 18.5208 4.9391C18.656 5.26542 18.7256 5.61516 18.7256 5.96836ZM13.3453 12.9074C13.3462 12.1951 13.6295 11.5123 14.1331 11.0087C14.6367 10.505 15.3196 10.2217 16.0318 10.2209H16.038C16.5697 10.2215 17.0893 10.3797 17.5311 10.6755C17.973 10.9713 18.3172 11.3913 18.5204 11.8827C18.7236 12.374 18.7766 12.9145 18.6727 13.436C18.5688 13.9574 18.3127 14.4364 17.9368 14.8123C17.5608 15.1883 17.0818 15.4444 16.5604 15.5483C16.039 15.6521 15.4984 15.5991 15.0071 15.396C14.5158 15.1928 14.0957 14.8485 13.7999 14.4067C13.5041 13.9649 13.3459 13.4453 13.3453 12.9136V12.9074ZM9.09382 17.162C8.56192 17.162 8.04195 17.3197 7.59967 17.6152C7.15739 17.9107 6.81266 18.3307 6.60906 18.8221C6.40546 19.3135 6.35214 19.8542 6.45583 20.3759C6.55953 20.8976 6.81558 21.3769 7.19162 21.7531C7.56767 22.1293 8.04681 22.3855 8.56847 22.4894C9.09013 22.5933 9.63089 22.5402 10.1224 22.3368C10.6138 22.1334 11.034 21.7888 11.3296 21.3466C11.6253 20.9045 11.7832 20.3845 11.7834 19.8526V17.162H9.09382Z" fill="white"/>
</g>
</svg>
