<svg width="26" height="26" viewBox="0 0 26 26" fill="none" xmlns="http://www.w3.org/2000/svg">
<g opacity="0.6">
<path d="M12.7824 8.22472C11.8556 8.22472 10.9497 8.49953 10.1791 9.0144C9.40857 9.52928 8.808 10.2611 8.45334 11.1173C8.09869 11.9735 8.0059 12.9156 8.1867 13.8246C8.3675 14.7335 8.81377 15.5684 9.46908 16.2237C10.1244 16.879 10.9593 17.3253 11.8682 17.5061C12.7772 17.6869 13.7193 17.5941 14.5755 17.2395C15.4317 16.8848 16.1635 16.2842 16.6784 15.5137C17.1933 14.7431 17.4681 13.8372 17.4681 12.9104C17.4668 11.6681 16.9727 10.477 16.0942 9.59856C15.2158 8.7201 14.0247 8.22601 12.7824 8.22472ZM12.7824 16.0342C12.1645 16.0342 11.5606 15.851 11.0469 15.5078C10.5332 15.1645 10.1328 14.6767 9.89635 14.1059C9.65992 13.5351 9.59806 12.907 9.71859 12.301C9.83912 11.695 10.1366 11.1384 10.5735 10.7016C11.0104 10.2647 11.567 9.96718 12.173 9.84664C12.7789 9.72611 13.407 9.78797 13.9778 10.0244C14.5486 10.2608 15.0365 10.6612 15.3797 11.1749C15.723 11.6886 15.9062 12.2926 15.9062 12.9104C15.9062 13.7389 15.5771 14.5335 14.9912 15.1193C14.4054 15.7051 13.6109 16.0342 12.7824 16.0342ZM17.4681 2.75806H8.09667C6.64729 2.75961 5.25773 3.33606 4.23287 4.36092C3.208 5.38578 2.63156 6.77535 2.63 8.22472V17.5961C2.63156 19.0455 3.208 20.4351 4.23287 21.4599C5.25773 22.4848 6.64729 23.0612 8.09667 23.0628H17.4681C18.9175 23.0612 20.307 22.4848 21.3319 21.4599C22.3567 20.4351 22.9332 19.0455 22.9347 17.5961V8.22472C22.9332 6.77535 22.3567 5.38578 21.3319 4.36092C20.307 3.33606 18.9175 2.75961 17.4681 2.75806ZM21.3728 17.5961C21.3728 18.6317 20.9615 19.6249 20.2292 20.3572C19.4969 21.0895 18.5037 21.5009 17.4681 21.5009H8.09667C7.06106 21.5009 6.06787 21.0895 5.33559 20.3572C4.6033 19.6249 4.19191 18.6317 4.19191 17.5961V8.22472C4.19191 7.18911 4.6033 6.19592 5.33559 5.46364C6.06787 4.73135 7.06106 4.31996 8.09667 4.31996H17.4681C18.5037 4.31996 19.4969 4.73135 20.2292 5.46364C20.9615 6.19592 21.3728 7.18911 21.3728 8.22472V17.5961ZM19.03 7.83424C19.03 8.06593 18.9613 8.29241 18.8326 8.48505C18.7038 8.67769 18.5209 8.82784 18.3068 8.9165C18.0928 9.00516 17.8573 9.02836 17.63 8.98316C17.4028 8.93796 17.1941 8.82639 17.0302 8.66257C16.8664 8.49874 16.7548 8.29001 16.7096 8.06278C16.6644 7.83554 16.6876 7.60001 16.7763 7.38596C16.865 7.17191 17.0151 6.98895 17.2078 6.86024C17.4004 6.73152 17.6269 6.66281 17.8586 6.66281C18.1692 6.66281 18.4672 6.78623 18.6869 7.00592C18.9066 7.2256 19.03 7.52356 19.03 7.83424Z" fill="white"/>
</g>
</svg>
