<svg width="26" height="26" viewBox="0 0 26 26" fill="none" xmlns="http://www.w3.org/2000/svg">
<g opacity="0.6">
<path d="M1.67456 3.09732C1.67456 2.19103 2.42766 1.45654 3.35686 1.45654H22.9002C23.8294 1.45654 24.5825 2.19103 24.5825 3.09732V22.7237C24.5825 23.63 23.8294 24.3645 22.9002 24.3645H3.35686C2.42766 24.3645 1.67456 23.63 1.67456 22.7237V3.09732ZM8.75167 20.6333V10.289H5.31406V20.6333H8.75167ZM7.03358 8.87584C8.23195 8.87584 8.97789 8.08266 8.97789 7.08903C8.95641 6.07392 8.23338 5.30221 7.05649 5.30221C5.87959 5.30221 5.11075 6.07535 5.11075 7.08903C5.11075 8.08266 5.85669 8.87584 7.01067 8.87584H7.03358ZM14.0606 20.6333V14.8562C14.0606 14.547 14.0835 14.2377 14.1751 14.0172C14.4228 13.4002 14.9884 12.7602 15.939 12.7602C17.1832 12.7602 17.68 13.708 17.68 15.0996V20.6333H21.1177V14.7002C21.1177 11.5217 19.4225 10.0441 17.1603 10.0441C15.3363 10.0441 14.5187 11.0464 14.0606 11.7522V11.788H14.0377C14.0453 11.7761 14.0529 11.7641 14.0606 11.7522V10.289H10.6244C10.6673 11.2597 10.6244 20.6333 10.6244 20.6333H14.0606Z" fill="white"/>
</g>
</svg>
