<svg width="26" height="26" viewBox="0 0 26 26" fill="none" xmlns="http://www.w3.org/2000/svg">
<g opacity="0.6">
<path d="M23.8022 6.66286C23.0005 7.0273 22.1362 7.2668 21.2407 7.38134C22.157 6.82946 22.8651 5.9548 23.1983 4.90312C22.334 5.42375 21.3761 5.78819 20.366 5.99645C19.5434 5.10096 18.3876 4.58032 17.0756 4.58032C14.6287 4.58032 12.6294 6.57956 12.6294 9.04737C12.6294 9.4014 12.6711 9.74502 12.744 10.0678C9.03704 9.88038 5.73622 8.09981 3.53914 5.40292C3.15387 6.05892 2.93521 6.82946 2.93521 7.64165C2.93521 9.19314 3.71616 10.5676 4.92403 11.3486C4.18473 11.3486 3.49749 11.1403 2.89356 10.8279V10.8592C2.89356 13.025 4.43463 14.8368 6.47552 15.2429C5.82028 15.4222 5.13238 15.4472 4.46587 15.3158C4.74869 16.2035 5.30257 16.9802 6.04966 17.5368C6.79675 18.0933 7.69948 18.4018 8.63095 18.4188C7.052 19.6688 5.09479 20.3444 3.08098 20.3347C2.72695 20.3347 2.37292 20.3139 2.01889 20.2722C3.9973 21.5426 6.35057 22.2819 8.87044 22.2819C17.0756 22.2819 21.5843 15.472 21.5843 9.568C21.5843 9.37016 21.5843 9.18273 21.5739 8.98489C22.4486 8.36013 23.1983 7.56876 23.8022 6.66286Z" fill="white"/>
</g>
</svg>
